<svg width="32" height="32" viewBox="0 0 32 32" fill="none" xmlns="http://www.w3.org/2000/svg">
<path d="M15.8667 6.99998C16.1405 6.99998 16.4031 7.10534 16.5967 7.29287C16.7902 7.48041 16.899 7.73476 16.899 7.99998L16.899 21.59L18.2306 20.29C18.425 20.1017 18.6886 19.9959 18.9635 19.9959C19.2384 19.9959 19.502 20.1017 19.6964 20.29C19.8908 20.4783 20 20.7337 20 21C20 21.2663 19.8908 21.5217 19.6964 21.71L16.5996 24.71C16.4545 24.8487 16.2702 24.9427 16.0699 24.9801C15.8697 25.0175 15.6625 24.9966 15.4745 24.92C15.286 24.845 15.1246 24.7176 15.0107 24.5538C14.8968 24.3901 14.8355 24.1974 14.8345 24L14.8345 7.99998C14.8345 7.73476 14.9432 7.48041 15.1368 7.29287C15.3304 7.10534 15.593 6.99998 15.8667 6.99998Z" fill="#9E6354"/>
<path d="M12.7701 19.9999C12.9059 19.9992 13.0406 20.0244 13.1664 20.0742C13.2921 20.1239 13.4065 20.1973 13.503 20.2899L16.5997 23.2899C16.7941 23.4782 16.9033 23.7336 16.9033 23.9999C16.9033 24.1318 16.8765 24.2624 16.8244 24.3842C16.7723 24.506 16.696 24.6167 16.5997 24.7099C16.5035 24.8032 16.3892 24.8771 16.2635 24.9276C16.1377 24.9781 16.003 25.004 15.8668 25.004C15.5919 25.004 15.3283 24.8982 15.1339 24.7099L12.0372 21.7099C11.9404 21.617 11.8636 21.5064 11.8112 21.3845C11.7588 21.2627 11.7318 21.1319 11.7318 20.9999C11.7318 20.8679 11.7588 20.7372 11.8112 20.6154C11.8636 20.4935 11.9404 20.3829 12.0372 20.2899C12.1336 20.1973 12.248 20.1239 12.3738 20.0742C12.4995 20.0244 12.6342 19.9992 12.7701 19.9999Z" fill="#9E6354"/>
</svg>
