<svg width="228" height="44" viewBox="0 0 228 44" fill="none" xmlns="http://www.w3.org/2000/svg">
<path d="M64.6756 18.709C64.6756 15.9563 66.9838 13.5906 71.6629 13.5906C76.8928 13.5906 79.0929 16.0121 79.0929 19.0943H79.7501C79.7501 15.6826 77.2763 12.9299 71.6611 12.9299C66.0459 12.9299 62.6952 16.7286 62.6952 20.9666C62.6952 31.8048 80.3027 26.5784 80.3027 35.6035C80.3027 39.1791 77.3286 42.7023 71.6611 42.7023C65.9936 42.7023 62.5924 39.1512 62.2298 34.1025V34.0991C62.2298 34.0991 62.2071 32.9153 62.031 32.8979C61.8549 32.8822 61.5673 34.0328 61.5673 34.0328C61.5673 34.0328 61.5638 34.0398 61.5638 34.0502C60.2476 39.6271 55.9904 42.3136 51.524 42.3136C44.2056 42.3136 40.0216 36.5937 40.0216 27.5111C40.0216 25.9194 40.1576 24.4498 40.4278 23.1092H61.0966C62.8033 17.9385 58.7309 12.984 50.8075 12.984C42.335 12.984 35.292 19.2564 35.292 28.6111C35.292 37.9657 41.8939 43.4694 49.4896 43.4694C55.5633 43.4694 59.9948 40.5859 61.7556 35.5844C62.6551 40.2861 66.3144 43.3578 71.7744 43.3578C78.6518 43.3578 82.1193 38.1313 82.1193 32.8491C82.1193 22.2271 64.6756 26.6324 64.6756 18.709ZM50.7517 13.6464C55.0996 13.6464 57.4653 16.0121 57.4653 19.1501C57.4653 21.8435 55.321 22.4485 52.7356 22.4485H40.5708C41.9044 16.8228 45.595 13.6464 50.7517 13.6464Z" fill="#E6CECE"/>
<path d="M79.0932 19.0942C79.0932 20.1402 78.7602 20.8532 78.4883 21.2943L79.0932 21.6238C79.4785 21.0189 79.7504 20.2483 79.7504 19.0942H79.0932Z" fill="#E6CECE"/>
<path d="M94.272 14.6926C94.272 14.3282 93.9756 14.0319 93.6112 14.0319H88.5033V6.32812C88.1337 6.32812 87.8234 6.60357 87.7764 6.96967C87.1557 11.783 84.0003 13.7808 80.7769 14.0092C80.4178 14.0353 80.1406 14.3317 80.1406 14.6926H83.9916V32.6854C83.9916 40.1694 88.4493 42.8106 93.8954 43.3597L93.9512 42.8664C89.9869 42.2614 88.5033 39.6203 88.5033 32.4099V14.6926H94.272Z" fill="#E6CECE"/>
<path d="M97.0859 5.69344V42.9743H101.544V-0.000244141C98.9251 0.646527 97.0859 2.99652 97.0859 5.69344ZM112.164 12.9857C108.092 12.9857 103.275 15.1579 101.542 19.7864C101.122 20.9126 100.885 22.187 100.885 23.606L101.542 23.5503C101.542 17.0564 107.046 14.0317 110.841 14.0317C116.841 14.0317 118.215 17.7712 118.215 24.3208V42.9743H122.673V24.5962C122.673 16.5072 119.041 12.984 112.164 12.984V12.9857Z" fill="#E6CECE"/>
<path d="M151.286 33.7869C150.957 33.7259 150.631 33.9282 150.549 34.2524C149.179 39.6916 144.972 42.3118 140.556 42.3118C133.238 42.3118 129.057 36.5919 129.057 27.5093C129.057 25.9176 129.193 24.448 129.464 23.1074H150.132C151.839 17.9367 147.767 12.9822 139.843 12.9822C131.367 12.9822 124.324 19.2546 124.324 28.6093C124.324 37.9639 130.93 43.4676 138.522 43.4676C145.291 43.4676 150.021 39.8886 151.288 33.7835L151.286 33.7869ZM139.787 13.6464C144.135 13.6464 146.501 16.0121 146.501 19.15C146.501 21.8435 144.353 22.4484 141.768 22.4484H129.606C130.937 16.8227 134.627 13.6464 139.787 13.6464Z" fill="#E6CECE"/>
<path d="M163.055 14.6926C163.055 14.3282 162.759 14.0319 162.394 14.0319H157.287V6.32812C156.917 6.32812 156.607 6.60357 156.56 6.96967C155.939 11.783 152.784 13.7808 149.56 14.0092C149.201 14.0353 148.924 14.3317 148.924 14.6926H152.775V32.6854C152.775 40.1694 157.232 42.8106 162.679 43.3597C162.71 43.0912 162.532 42.8367 162.267 42.7827C158.655 42.04 157.288 39.3292 157.288 32.4099V14.6926H163.057H163.055Z" fill="#E6CECE"/>
<path d="M166.861 19.0594V42.9743H171.371V13.3152C168.725 13.962 166.861 16.3346 166.861 19.0594Z" fill="#E6CECE"/>
<path d="M224.146 33.6754V24.0994C224.146 16.3957 219.083 13.0415 212.699 13.0415C205.986 13.0938 202.135 17.0581 202.135 21.8993C202.135 24.5404 203.181 26.6324 204.391 27.7307L204.401 27.7203C204.64 27.4814 204.652 27.1049 204.445 26.8399C203.554 25.7032 202.797 23.9686 202.797 21.8993C202.797 17.4416 206.265 13.9759 211.435 14.0317C217.488 14.1398 219.636 18.1599 219.636 23.2225V34.8295C219.636 34.8713 219.636 34.9167 219.64 34.9585C219.688 40.4273 223.142 42.868 228 43.3578C228.03 43.0824 227.858 42.8279 227.594 42.7442C225.079 41.9562 224.15 39.2872 224.15 33.6737L224.146 33.6754ZM219.633 30.5932C219.633 37.3626 215.119 41.876 210.498 41.876C207.086 41.876 205.05 39.5068 205.05 36.3166C205.05 32.4656 207.965 27.8998 219.631 27.8998V27.2391C208.59 27.6488 203.385 30.4259 201.436 33.7016C201.289 33.9491 201.159 34.2019 201.051 34.453C200.977 34.6552 200.904 34.8591 200.82 35.0544C200.817 35.0614 200.813 35.0718 200.813 35.0788C200.583 35.7779 200.48 36.4926 200.48 37.1952V37.1987C200.48 41.1595 203.674 43.3596 207.799 43.3596C214.492 43.3596 218.227 39.4789 219.634 34.9603C220.079 33.536 220.292 32.0454 220.292 30.595H219.631L219.633 30.5932Z" fill="#E6CECE"/>
<path d="M21.3713 5.56957C20.1336 2.75411 17.3443 0.934082 14.2691 0.934082L15.1773 2.99817C15.4057 3.51594 15.5347 4.0738 15.5469 4.64038C15.5487 4.738 15.5504 4.83389 15.5504 4.92628V5.20347C15.4284 8.39374 14.5741 11.19 12.9895 13.5888C11.4013 15.9859 9.58128 18.2313 7.53114 20.3268C6.25154 21.7092 5.03994 23.1108 3.90329 24.5316C2.76316 25.9559 1.82874 27.4639 1.09829 29.059C0.36784 30.6577 0 32.4219 0 34.3518C0 36.3845 0.448033 38.0633 1.34061 39.3969C2.23668 40.7306 3.4047 41.7208 4.84991 42.371C6.29164 43.0213 7.86934 43.3473 9.57605 43.3473C14.1279 43.3473 17.4925 41.5987 19.6664 38.1034C21.5387 35.0735 22.4714 31.1807 22.4714 26.4249C22.4714 23.5135 22.2047 20.6301 21.6782 17.778L22.8863 20.5255L23.1774 21.1862L32.7605 42.9742H37.8231L21.3713 5.56957ZM21.985 26.2697C21.9641 29.7267 21.4254 32.5422 20.3689 34.7144C19.3508 36.7889 18.0678 38.3248 16.511 39.3185C14.9577 40.3157 13.3556 40.8125 11.7116 40.8125C9.4732 40.8125 7.68455 40.3819 6.34568 39.519C5.00158 38.6543 4.02707 37.556 3.41691 36.2276C2.80849 34.8939 2.50341 33.5097 2.50341 32.0645C2.50341 30.4171 2.79803 28.9196 3.38553 27.5685C3.97651 26.214 4.74357 24.9413 5.68671 23.7419C6.63507 22.5425 7.6462 21.3518 8.72357 20.1734C9.9404 18.8711 11.1067 17.4974 12.212 16.0417C13.3207 14.5895 14.2412 12.9769 14.9716 11.2109C15.7021 9.44148 16.0699 7.39831 16.0699 5.08144C16.0699 5.06226 16.0699 5.04308 16.0699 5.02391L20.5206 15.1456C20.7368 15.6355 20.9076 16.1463 21.0175 16.671C21.6625 19.7637 21.9867 22.9609 21.9867 26.2732L21.985 26.2697Z" fill="#E6CECE"/>
<path d="M78.6 15.5327L78.5495 15.4734C76.8201 13.8644 75.6626 13.5261 75.6137 13.5122L75.5196 13.5C75.2651 13.5 74.3777 13.7197 73.6281 16.5595C72.9221 19.4604 74.0186 21.0032 74.7334 21.664C75.3958 22.2741 76.2553 22.6158 77.0468 22.6158C77.3117 22.6158 77.5697 22.5775 77.8103 22.499C78.6384 22.2253 79.0045 21.7564 79.0934 21.6291C79.3096 21.3711 81.0389 19.1187 78.6018 15.5345L78.6 15.5327Z" fill="#E6CECE"/>
<path d="M201.914 33.7871C201.553 35.0214 201.077 36.1632 200.482 37.1953V37.1988C198.289 41.0358 194.499 43.3597 189.036 43.3597C181.06 43.3597 174.289 37.5283 174.289 28.1736C174.289 18.819 180.673 12.9875 188.762 12.9875C195.42 12.9875 199.381 16.5108 199.381 22.2864C199.381 23.1581 199.255 24.0036 199.027 24.7846C199.027 24.795 199.023 24.802 199.023 24.809C198.842 25.7364 198.478 26.4076 198.089 26.8905C198.089 26.8905 198.085 26.8905 198.085 26.894C198.054 26.9324 198.023 26.9672 197.991 27.0056C197.733 27.3037 197.466 27.5199 197.24 27.6698C196.492 28.1736 195.589 28.3793 194.808 28.2608C194.545 28.2189 194.297 28.1422 194.071 28.0272C193.295 27.6314 193.004 27.1137 192.937 26.9742C192.763 26.6866 191.395 24.1971 194.351 21.0225L194.41 20.9737C196.089 19.3019 197.517 19.4692 197.583 19.4692L197.705 19.4832C197.852 19.5076 198.223 19.647 198.56 20.3967C197.794 16.1918 194.41 13.8679 189.974 13.8679C183.368 13.8679 178.968 19.0944 178.968 28.1736C178.968 36.5938 183.041 42.4828 190.359 42.4828C195.075 42.4828 198.924 39.737 200.815 35.0806C200.815 35.0737 200.819 35.0632 200.822 35.0562C200.906 34.861 200.979 34.657 201.053 34.4548C201.161 34.2037 201.29 33.951 201.438 33.7034L201.914 33.7906V33.7871Z" fill="#E6CECE"/>
<path d="M171.44 6.73429C170.804 6.09798 169.791 6.06485 169.115 6.63492C168.796 6.3647 168.4 6.23047 168.006 6.23047C167.565 6.23047 167.126 6.39783 166.789 6.73429C166.153 7.3706 166.12 8.37824 166.686 9.05465C166.718 9.093 166.752 9.13135 166.789 9.16796L169.115 11.4935L171.44 9.16796C171.477 9.13135 171.512 9.093 171.543 9.05465C171.81 8.73562 171.944 8.34337 171.944 7.95112C171.944 7.51181 171.777 7.07075 171.44 6.73429Z" fill="#E6CECE"/>
</svg>
