<svg width="1339" height="256" viewBox="0 0 1339 256" fill="none" xmlns="http://www.w3.org/2000/svg">
<path d="M379.543 109.794C379.543 93.6401 393.088 79.7573 420.547 79.7573C451.239 79.7573 464.15 93.9675 464.15 112.055H468.006C468.006 92.0339 453.489 75.8799 420.537 75.8799C387.584 75.8799 367.921 98.1722 367.921 123.043C367.921 186.646 471.249 155.975 471.249 208.938C471.249 229.921 453.796 250.597 420.537 250.597C387.277 250.597 367.318 229.757 365.19 200.13V200.109C365.19 200.109 365.057 193.163 364.023 193.06C362.99 192.968 361.302 199.72 361.302 199.72C361.302 199.72 361.282 199.761 361.282 199.823C353.557 232.55 328.574 248.315 302.364 248.315C259.416 248.315 234.863 214.749 234.863 161.448C234.863 152.108 235.661 143.483 237.247 135.616H358.54C368.555 105.272 344.657 76.197 298.159 76.197C248.439 76.197 207.107 113.006 207.107 167.904C207.107 222.801 245.85 255.098 290.425 255.098C326.068 255.098 352.074 238.177 362.407 208.826C367.686 236.417 389.16 254.444 421.202 254.444C461.561 254.444 481.91 223.772 481.91 192.774C481.91 130.439 379.543 156.292 379.543 109.794ZM297.832 80.0846C323.347 80.0846 337.23 93.9675 337.23 112.382C337.23 128.189 324.646 131.739 309.474 131.739H238.085C245.912 98.7247 267.57 80.0846 297.832 80.0846Z" fill="#E6CECE"/>
<path d="M464.15 112.055C464.15 118.193 462.196 122.378 460.6 124.966L464.15 126.9C466.411 123.35 468.007 118.828 468.007 112.055H464.15Z" fill="#E6CECE"/>
<path d="M553.226 86.2229C553.226 84.0848 551.486 82.3456 549.348 82.3456H519.373V37.1368C517.204 37.1368 515.383 38.7533 515.107 40.9017C511.465 69.1482 492.947 80.8724 474.031 82.2126C471.924 82.366 470.297 84.1052 470.297 86.2229H492.896V191.812C492.896 235.732 519.056 251.231 551.016 254.454L551.343 251.559C528.079 248.009 519.373 232.509 519.373 190.196V86.2229H553.226Z" fill="#E6CECE"/>
<path d="M569.738 33.4129V252.193H595.898V0C580.531 3.79553 569.738 17.5863 569.738 33.4129ZM658.222 76.2072C634.324 76.2072 606.057 88.9545 595.888 116.117C593.422 122.725 592.031 130.204 592.031 138.532L595.888 138.204C595.888 100.096 628.185 82.3455 650.457 82.3455C685.671 82.3455 693.732 104.29 693.732 142.726V252.193H719.892V144.343C719.892 96.8729 698.582 76.197 658.222 76.197V76.2072Z" fill="#E6CECE"/>
<path d="M887.815 198.278C885.882 197.92 883.969 199.107 883.488 201.009C875.447 232.929 850.76 248.305 824.846 248.305C781.899 248.305 757.366 214.739 757.366 161.438C757.366 152.097 758.164 143.473 759.749 135.606H881.043C891.058 105.262 867.16 76.1868 820.662 76.1868C770.921 76.1868 729.59 112.996 729.59 167.893C729.59 222.79 768.353 255.088 812.907 255.088C852.632 255.088 880.388 234.085 887.825 198.257L887.815 198.278ZM820.335 80.0846C845.85 80.0846 859.732 93.9674 859.732 112.382C859.732 128.189 847.128 131.739 831.957 131.739H760.588C768.394 98.7246 790.052 80.0846 820.335 80.0846Z" fill="#E6CECE"/>
<path d="M956.882 86.2229C956.882 84.0848 955.143 82.3456 953.004 82.3456H923.029V37.1368C920.86 37.1368 919.039 38.7533 918.763 40.9017C915.121 69.1482 896.603 80.8724 877.687 82.2126C875.58 82.366 873.953 84.1052 873.953 86.2229H896.552V191.812C896.552 235.732 922.712 251.231 954.672 254.454C954.856 252.878 953.813 251.385 952.258 251.067C931.06 246.709 923.039 230.801 923.039 190.196V86.2229H956.892H956.882Z" fill="#E6CECE"/>
<path d="M979.215 111.85V252.193H1005.68V78.1407C990.151 81.9363 979.215 95.86 979.215 111.85Z" fill="#E6CECE"/>
<path d="M1315.38 197.623V141.427C1315.38 96.2181 1285.67 76.5345 1248.21 76.5345C1208.81 76.8415 1186.21 100.106 1186.21 128.516C1186.21 144.015 1192.35 156.292 1199.45 162.737L1199.51 162.676C1200.91 161.274 1200.98 159.064 1199.76 157.509C1194.54 150.839 1190.1 140.66 1190.1 128.516C1190.1 102.356 1210.44 82.0181 1240.79 82.3455C1276.31 82.9798 1288.91 106.571 1288.91 136.281V204.396C1288.91 204.641 1288.91 204.907 1288.93 205.153C1289.22 237.246 1309.49 251.569 1338 254.443C1338.17 252.827 1337.16 251.333 1335.62 250.842C1320.85 246.218 1315.4 230.555 1315.4 197.613L1315.38 197.623ZM1288.89 179.536C1288.89 219.261 1262.41 245.748 1235.28 245.748C1215.26 245.748 1203.31 231.844 1203.31 213.122C1203.31 190.523 1220.42 163.729 1288.88 163.729V159.852C1224.09 162.256 1193.54 178.553 1182.11 197.777C1181.25 199.229 1180.48 200.713 1179.85 202.186C1179.42 203.373 1178.99 204.57 1178.49 205.715C1178.47 205.756 1178.45 205.818 1178.45 205.859C1177.1 209.961 1176.5 214.156 1176.5 218.279V218.299C1176.5 241.543 1195.24 254.454 1219.45 254.454C1258.72 254.454 1280.65 231.681 1288.9 205.163C1291.51 196.805 1292.76 188.058 1292.76 179.546H1288.88L1288.89 179.536Z" fill="#E6CECE"/>
<path d="M125.416 32.6865C118.152 16.1642 101.784 5.48352 83.7369 5.48352L89.067 17.5965C90.4072 20.6349 91.1643 23.9087 91.2359 27.2336C91.2461 27.8065 91.2563 28.3692 91.2563 28.9114V30.5381C90.5402 49.26 85.5272 65.6697 76.2277 79.7469C66.9077 93.8139 56.227 106.991 44.1959 119.288C36.6867 127.401 29.5765 135.626 22.9062 143.964C16.2154 152.322 10.7318 161.172 6.44523 170.533C2.15864 179.914 0 190.267 0 201.593C0 213.521 2.62925 223.373 7.86728 231.2C13.1258 239.026 19.9802 244.837 28.4613 248.653C36.922 252.469 46.1806 254.382 56.1963 254.382C82.9082 254.382 102.653 244.121 115.411 223.609C126.398 205.828 131.872 182.983 131.872 155.074C131.872 137.989 130.306 121.068 127.217 104.331L134.306 120.454L136.015 124.332L192.252 252.193H221.962L125.416 32.6865ZM129.017 154.164C128.894 174.451 125.733 190.973 119.534 203.721C113.559 215.895 106.029 224.908 96.8934 230.739C87.778 236.591 78.3761 239.507 68.7287 239.507C55.5927 239.507 45.0962 236.98 37.2391 231.916C29.3514 226.842 23.6325 220.396 20.0518 212.601C16.4814 204.774 14.691 196.651 14.691 188.17C14.691 178.502 16.42 169.714 19.8677 161.786C23.3358 153.836 27.8373 146.368 33.372 139.33C38.9374 132.291 44.8711 125.303 51.1936 118.388C58.3345 110.745 65.1787 102.684 71.6649 94.1413C78.1715 85.6193 83.5732 76.156 87.8598 65.7925C92.1464 55.4085 94.305 43.4183 94.305 29.822C94.305 29.7094 94.305 29.5969 94.305 29.4843L120.424 88.8828C121.692 91.7576 122.695 94.7551 123.339 97.8345C127.125 115.983 129.027 134.746 129.027 154.184L129.017 154.164Z" fill="#E6CECE"/>
<path d="M461.254 91.154L460.957 90.8062C450.809 81.3634 444.016 79.3787 443.729 79.2968L443.177 79.2252C441.683 79.2252 436.476 80.5143 432.077 97.1798C427.933 114.203 434.368 123.257 438.563 127.135C442.45 130.715 447.494 132.721 452.139 132.721C453.694 132.721 455.208 132.496 456.62 132.035C461.479 130.429 463.627 127.677 464.149 126.93C465.418 125.416 475.567 112.198 461.264 91.1642L461.254 91.154Z" fill="#E6CECE"/>
<path d="M1184.91 198.278C1182.79 205.521 1180 212.222 1176.51 218.279V218.299C1163.64 240.816 1141.4 254.454 1109.34 254.454C1062.53 254.454 1022.8 220.233 1022.8 165.336C1022.8 110.439 1060.26 76.2174 1107.73 76.2174C1146.8 76.2174 1170.04 96.8933 1170.04 130.787C1170.04 135.902 1169.31 140.864 1167.97 145.447C1167.97 145.509 1167.95 145.55 1167.95 145.591C1166.88 151.033 1164.75 154.972 1162.46 157.806C1162.46 157.806 1162.44 157.806 1162.44 157.826C1162.26 158.051 1162.08 158.256 1161.89 158.481C1160.38 160.231 1158.81 161.499 1157.48 162.379C1153.09 165.336 1147.79 166.543 1143.21 165.847C1141.67 165.602 1140.21 165.151 1138.88 164.476C1134.33 162.154 1132.62 159.115 1132.23 158.297C1131.21 156.609 1123.18 142 1140.53 123.37L1140.88 123.083C1150.73 113.272 1159.11 114.255 1159.5 114.255L1160.21 114.336C1161.07 114.48 1163.25 115.298 1165.23 119.697C1160.74 95.0211 1140.88 81.3838 1114.84 81.3838C1076.08 81.3838 1050.26 112.055 1050.26 165.336C1050.26 214.749 1074.15 249.308 1117.1 249.308C1144.78 249.308 1167.36 233.195 1178.46 205.869C1178.46 205.828 1178.49 205.767 1178.51 205.726C1179 204.58 1179.43 203.383 1179.86 202.196C1180.49 200.723 1181.25 199.24 1182.12 197.787L1184.91 198.298V198.278Z" fill="#E6CECE"/>
<path d="M1006.08 39.5206C1002.35 35.7864 996.403 35.5921 992.433 38.9374C990.561 37.3517 988.239 36.564 985.926 36.564C983.338 36.564 980.76 37.5461 978.786 39.5206C975.051 43.2547 974.857 49.168 978.182 53.1374C978.366 53.3625 978.571 53.5876 978.786 53.8024L992.433 67.4499L1006.08 53.8024C1006.3 53.5876 1006.5 53.3625 1006.68 53.1374C1008.25 51.2652 1009.04 48.9634 1009.04 46.6615C1009.04 44.0834 1008.06 41.4951 1006.08 39.5206Z" fill="#E6CECE"/>
</svg>
