<svg width="24" height="24" viewBox="0 0 24 24" fill="none" xmlns="http://www.w3.org/2000/svg">
<path d="M6.58008 20.3297V3.67037C6.58008 2.95084 7.37461 2.51725 7.9793 2.90397L21.0012 11.2337C21.5613 11.5922 21.5613 12.4079 21.0012 12.7665L7.9793 21.0962C7.37461 21.4829 6.58008 21.0493 6.58008 20.3297Z" fill="#9E6354"/>
<path d="M6.93203 20.3297C6.93203 20.0016 6.93203 19.6711 6.93203 19.343C6.93203 18.5063 6.93203 17.6696 6.93203 16.8329C6.93203 15.6961 6.93203 14.5594 6.93203 13.425C6.93203 12.2063 6.93203 10.9875 6.93203 9.76645C6.93203 8.67895 6.93203 7.59145 6.93203 6.50161C6.93203 5.75864 6.93203 5.01802 6.93203 4.27505C6.93203 4.10161 6.93203 3.92583 6.93203 3.75239C6.93203 3.72661 6.93203 3.69848 6.93203 3.6727C6.93203 3.66098 6.93203 3.6563 6.93203 3.63989C6.93203 3.6188 6.93438 3.60005 6.93672 3.57895C6.93203 3.65395 6.93437 3.59067 6.93906 3.56958C6.95078 3.52739 6.9625 3.4852 6.97422 3.44536C6.95078 3.51567 6.96719 3.45708 6.97891 3.43833C6.99531 3.4102 7.00937 3.38208 7.02812 3.35395C7.0375 3.33755 7.04922 3.32348 7.05859 3.30942C7.01641 3.36802 7.04453 3.32817 7.05625 3.31645C7.08906 3.28364 7.11953 3.25317 7.15469 3.2227C7.09844 3.27192 7.14063 3.23208 7.15938 3.22036C7.17813 3.20864 7.19688 3.19692 7.21797 3.1852C7.23438 3.17583 7.25078 3.1688 7.26719 3.15942C7.33516 3.12192 7.21562 3.17348 7.28359 3.15239C7.32812 3.14067 7.37031 3.12661 7.41484 3.11723C7.49453 3.09614 7.36797 3.1102 7.41719 3.11723C7.43828 3.11958 7.46406 3.11489 7.48516 3.11489C7.50391 3.11489 7.52266 3.11489 7.54141 3.11723C7.54609 3.11723 7.63281 3.13364 7.57891 3.11958C7.52266 3.10552 7.61406 3.12895 7.61641 3.12895C7.64453 3.13598 7.67266 3.14536 7.69844 3.15473C7.75938 3.17348 7.71016 3.15942 7.69609 3.15239C7.72422 3.16645 7.75 3.18052 7.77578 3.19458C7.78516 3.19927 7.79453 3.2063 7.80156 3.21098C7.80391 3.21333 7.80625 3.21333 7.80859 3.21567C7.84141 3.23677 7.87656 3.25786 7.90938 3.27895C8.08516 3.39145 8.25859 3.50161 8.43437 3.61411C9.11641 4.05005 9.80078 4.48833 10.4828 4.92427C11.4437 5.54067 12.407 6.15473 13.368 6.77114C14.3875 7.4227 15.407 8.07661 16.4289 8.72817C17.3078 9.29067 18.1844 9.85083 19.0633 10.4133C19.5859 10.7485 20.1086 11.0836 20.6336 11.4165C20.6852 11.4493 20.7344 11.4821 20.7859 11.5125C20.7977 11.5196 20.8094 11.5266 20.8211 11.5336C20.8234 11.5336 20.8258 11.536 20.8258 11.536C20.8422 11.5477 20.8609 11.5594 20.8773 11.5711C20.8234 11.529 20.875 11.5711 20.8867 11.5829C20.9102 11.6086 20.9336 11.6321 20.957 11.6555C20.9711 11.6696 20.9852 11.7071 20.9547 11.6532C20.9641 11.6696 20.9758 11.6836 20.9852 11.7C20.9992 11.7235 21.0109 11.7493 21.025 11.775C21.0344 11.7938 21.0414 11.8336 21.0227 11.768C21.0367 11.8125 21.0508 11.8547 21.0625 11.9016C21.0672 11.9204 21.0695 11.9368 21.0719 11.9555C21.0578 11.8665 21.0695 11.9508 21.0695 11.9719C21.0695 11.9977 21.0578 12.136 21.0719 12.0422C21.0648 12.0868 21.0555 12.1336 21.0414 12.1758C21.0367 12.1946 21.0297 12.211 21.0227 12.2274C21.0461 12.1547 21.0297 12.2133 21.018 12.2321C21.0063 12.2532 20.9969 12.2743 20.9828 12.293C20.9758 12.3024 20.9219 12.3774 20.9711 12.3141C20.9406 12.3516 20.9055 12.3844 20.8703 12.4196C20.8609 12.429 20.8187 12.4618 20.8703 12.4219C20.8516 12.436 20.8398 12.443 20.8188 12.4571C20.8164 12.4571 20.8164 12.4594 20.8141 12.4594C20.8047 12.4665 20.793 12.4735 20.7836 12.4782C20.3852 12.7336 19.9867 12.9868 19.5883 13.2422C18.7844 13.7555 17.9805 14.2711 17.1766 14.7844C16.1664 15.429 15.1586 16.0758 14.1484 16.7204C13.157 17.3555 12.1633 17.9907 11.1719 18.6258C10.3961 19.1227 9.62031 19.6196 8.84453 20.1141C8.49766 20.3368 8.15313 20.5618 7.80391 20.7797C7.76641 20.8032 7.72891 20.8243 7.68906 20.8454C7.74766 20.8149 7.70547 20.8383 7.69141 20.843C7.66797 20.85 7.64453 20.8571 7.62109 20.8641C7.59766 20.8711 7.57422 20.8735 7.55078 20.8805C7.61406 20.8618 7.58594 20.8782 7.56016 20.8782C7.51328 20.8805 7.46875 20.8805 7.42188 20.8782C7.35625 20.8758 7.41953 20.8782 7.43359 20.8805C7.40781 20.8758 7.37969 20.8711 7.35391 20.8641C7.33047 20.8594 7.22969 20.8219 7.26719 20.8383C7.30469 20.8547 7.20625 20.8055 7.1875 20.7938C7.16875 20.7821 7.15 20.7657 7.13125 20.7563C7.08672 20.7352 7.18516 20.8102 7.12656 20.7516C7.09375 20.7188 7.06094 20.6883 7.03047 20.6532C7.07969 20.7071 7.02109 20.6368 7.00469 20.6133C6.99062 20.5899 6.97891 20.5641 6.96484 20.5407C6.95547 20.5219 6.95078 20.4844 6.96719 20.5477C6.95547 20.5008 6.93906 20.4563 6.92734 20.4094C6.92266 20.3907 6.925 20.3461 6.92734 20.4141C6.93437 20.3907 6.93203 20.3602 6.93203 20.3297C6.92969 20.1469 6.77266 19.9688 6.58047 19.9782C6.39297 19.9875 6.22656 20.1329 6.22891 20.3297C6.23594 20.7938 6.48906 21.2415 6.91328 21.45C7.31406 21.6469 7.77812 21.6352 8.16016 21.3985C8.24687 21.3446 8.33359 21.2883 8.41797 21.2321C8.9875 20.8688 9.55703 20.5032 10.1266 20.1399C11.043 19.554 11.9594 18.968 12.8758 18.3821C13.9141 17.7165 14.9547 17.0532 15.993 16.3875C16.9398 15.7829 17.8867 15.1758 18.8336 14.5711C19.4711 14.1633 20.1109 13.7555 20.7484 13.3454C20.882 13.261 21.0156 13.1743 21.1492 13.0899C21.2758 13.0079 21.3953 12.9141 21.4891 12.7946C21.7961 12.4079 21.8523 11.8946 21.6437 11.4469C21.5148 11.1727 21.2852 10.9993 21.0414 10.8422C20.8539 10.7227 20.6641 10.6008 20.4766 10.4813C19.7617 10.0243 19.0469 9.56723 18.3344 9.1102C17.35 8.47974 16.3633 7.84927 15.3789 7.2188C14.343 6.55786 13.3094 5.89458 12.2734 5.23364C11.4086 4.68052 10.5438 4.12739 9.67891 3.57427C9.20547 3.27192 8.73438 2.96958 8.26094 2.66723C7.93984 2.46098 7.58359 2.35552 7.19922 2.44223C6.60625 2.57583 6.22891 3.12192 6.22656 3.71255C6.22656 4.16958 6.22656 4.62427 6.22656 5.0813C6.22656 6.0188 6.22656 6.9563 6.22656 7.8938C6.22656 9.08442 6.22656 10.2727 6.22656 11.4633C6.22656 12.6844 6.22656 13.9079 6.22656 15.129C6.22656 16.1625 6.22656 17.1961 6.22656 18.2321C6.22656 18.8508 6.22656 19.4672 6.22656 20.086C6.22656 20.168 6.22656 20.25 6.22656 20.3344C6.22656 20.5172 6.38828 20.6954 6.57812 20.686C6.77031 20.6719 6.93203 20.5266 6.93203 20.3297Z" fill="#DAB2A8"/>
</svg>
